PathFileType	4	(X/Y/Z)	C:/Users/beibeiliu/ov580/test_trc/User3\sequence.41_training_dense_left.trc
DataRate	CameraRate	NumFrames	NumMarkers	Units	OrigDataRate	OrigDataStartFrame	OrigNumFrames
120	120	7	19	mm	120	26	75
Frame#	Time	ThumbCMC			ThumbMCP			ThumbIP			ThumbTip			IndexMCP			IndexPIP			IndexTip			MiddleMCP			MiddlePIP			MiddleTip			RingMCP			RingPIP			RingTip			PinkyMCP			PinkyPIP			PinkyTip			BackHand1			BackHand2			BackHand3	
		X0	Y0	Z0	X1	Y1	Z1	X2	Y2	Z2	X3	Y3	Z3	X4	Y4	Z4	X5	Y5	Z5	X6	Y6	Z6	X7	Y7	Z7	X8	Y8	Z8	X9	Y9	Z9	X10	Y10	Z10	X11	Y11	Z11	X12	Y12	Z12	X13	Y13	Z13	X14	Y14	Z14	X15	Y15	Z15	X16	Y16	Z16	X17	Y17	Z17	X18	Y18	Z18	
25	0.208333	-211.064	19.7987	78.4518	-193.108	47.5226	55.3154	-170.924	54.8478	30.5538	-149.808	49.9789	17.6011	-212.931	11.7508	-1.80129	-204.416	32.9339	-22.7412	-189.577	55.7526	-29.4336	-200.85	-11.319	-6.70868	-194.189	1.0514	-35.3562	-174.67	23.7055	-53.9125	-177.931	-18.3679	1.55872	-163.597	-1.67006	-22.0383	-146.373	25.5452	-22.3827	-157.867	-15.5729	16.2806	-142.94	0.149941	2.52711	-132.982	23.9634	1.25105	-190.224	-35.6096	54.6611	-195.384	-39.1374	79.5212	-217.953	-18.685	66.799	
26	0.216667	-217.988	25.5641	74.4196	-199.648	52.7174	56.0303	-180.304	63.5702	36.1248	-159.973	64.5686	23.2428	-219.459	17.0737	0.358814	-208.285	32.1308	-24.0011	-195.223	53.5759	-33.4087	-200.451	-9.40024	-8.6902	-197.39	3.78917	-34.8202	-181.707	24.1486	-56.2278	-184.326	-15.7446	-0.812816	-170.233	-3.88826	-25.5759	-152.939	21.1651	-34.4132	-158.091	-19.8158	18.0366	-145.446	-4.64204	-0.765652	-130.872	12.8401	-8.52583	-192.341	-32.5625	47.7963	-196.455	-41.0424	80.2623	-222.446	-15.2025	62.5701	
27	0.225	-214.961	26.4465	73.1928	-202.064	59.1773	62.4122	-184.161	79.5626	41.2237	-164.442	88.426	29.4582	-211.064	18.8921	-1.70839	-205.845	40.3771	-27.3683	-188.971	56.2729	-38.7059	-198	-1.42079	-11.9212	-187.995	6.7732	-38.5836	-174.206	30.9563	-62.3105	-177.265	-15.5331	-0.0482974	-164.74	-5.67812	-28.0077	-149.046	9.9796	-41.7791	-154.135	-21.1337	17.6799	-143.585	-12.1828	0.0756831	-126.08	3.75624	-13.9181	-192.932	-26.2724	47.6438	-193.981	-36.3962	77.0272	-217.844	-11.8443	56.8691	
28	0.233333	-217.643	28.7563	71.2906	-201.144	54.3906	63.903	-184.14	76.8753	48.2217	-165.501	86.3941	37.186	-211.223	20.7252	-5.28958	-203.032	37.2769	-26.4232	-185.257	58.9393	-41.8005	-198.696	-1.22419	-9.31963	-188.612	9.77758	-40.4272	-171.93	26.1368	-58.5015	-179.108	-14.5065	-4.23523	-169.248	-6.69867	-30.1923	-153.26	7.24373	-45.6366	-159.396	-21.8829	15.0503	-142.138	-15.9912	-4.20475	-126.531	-4.16612	-19.195	-192.605	-31.4704	41.9583	-199.518	-38.6057	75.3395	-221.297	-14.3062	57.3146	
29	0.241667	-217.303	23.3033	72.9016	-199.405	50.5601	57.7473	-182.687	73.7032	43.5229	-159.783	78.1147	30.3053	-212.686	15.2239	-5.00776	-206.507	35.6977	-28.1198	-190.992	59.7146	-39.5917	-197.472	-7.41216	-13.8158	-189.478	6.43375	-40.9172	-172.083	30.7374	-61.5215	-181.32	-15.8318	-5.2952	-170.057	-7.10164	-30.5744	-151.56	8.82078	-45.0689	-161.17	-20.4062	11.6766	-144.622	-12.5868	-8.78682	-130.948	4.70916	-20.4195	-196.5	-31.431	44.6043	-198.093	-38.9844	71.2285	-222.713	-16.7921	56.7256	
30	0.25	-212.818	16.5228	65.5089	-196.695	47.2419	48.1458	-175.722	56.8372	32.434	-152.896	55.8288	16.3127	-217.077	13.76	-10.9949	-206.37	29.1557	-29.6424	-187.923	56.1406	-38.3359	-199.068	-12.214	-13.4661	-191.451	0.821362	-44.2406	-175.876	24.519	-60.7579	-181.962	-19.4664	-10.2358	-167.629	-6.50497	-34.0244	-156.042	19.7889	-42.1244	-158.522	-19.3881	5.56284	-145.427	-6.6832	-9.38288	-132.794	19.4715	-18.5904	-190.823	-38.7554	38.2713	-192.534	-43.9783	69.837	-219.296	-23.243	53.8258	
31	0.258333	-207.205	16.3991	64.3858	-187.628	44.9267	41.706	-167.782	49.2146	21.8942	-145.002	46.6046	4.88379	-210.633	10.4713	-13.8134	-203.86	31.4497	-31.9366	-186.604	57.1958	-35.6188	-200.129	-12.8799	-20.5741	-193.616	0.112013	-48.1222	-179.834	25.4935	-67.9385	-176.771	-19.5053	-11.186	-168.494	-5.39726	-34.759	-152.778	24.1247	-38.4753	-153.89	-18.1367	3.92747	-140.755	1.43307	-12.6923	-133.358	23.5425	-14.2328	-187.599	-38.1951	36.7754	-188.16	-41.6014	68.4119	-217.219	-19.6951	51.6975	
